<svg width="519" height="432" viewBox="0 0 519 432" fill="none" xmlns="http://www.w3.org/2000/svg">
<path d="M8.37097 16C8.37097 7.16344 15.5344 0 24.371 0H492.371C501.208 0 508.371 7.16344 508.371 16V392C508.371 400.837 501.208 408 492.371 408H24.371C15.5344 408 8.37097 400.837 8.37097 392V16Z" fill="white" fill-opacity="0.1"/>
<path d="M24.371 1H492.371C500.655 1 507.371 7.71573 507.371 16V392C507.371 400.284 500.655 407 492.371 407H24.371C16.0867 407 9.37097 400.284 9.37097 392V16C9.37097 7.71573 16.0867 1 24.371 1Z" stroke="black" stroke-opacity="0.1" stroke-width="2"/>
<g filter="url(#filter0_d_396_1881)">
<g clip-path="url(#clip0_396_1881)">
<rect x="33.371" y="26.5" width="452" height="361" rx="13" fill="white" fill-opacity="0.01" shape-rendering="crispEdges"/>
<g filter="url(#filter1_d_396_1881)">
<path d="M-100.629 18.5C-100.629 9.66344 -93.4656 2.5 -84.629 2.5H610.371C619.208 2.5 626.371 9.66344 626.371 18.5V571.5C626.371 580.337 619.208 587.5 610.371 587.5H-84.629C-93.4656 587.5 -100.629 580.337 -100.629 571.5V18.5Z" fill="white" fill-opacity="0.01" shape-rendering="crispEdges"/>
<g opacity="0.9">
<rect width="498" height="403" transform="translate(10.371 2.5)" fill="black"/>
</g>
</g>
</g>
</g>
<defs>
<filter id="filter0_d_396_1881" x="-2.67029e-05" y="3.808" width="518.742" height="427.742" filterUnits="userSpaceOnUse" color-interpolation-filters="sRGB">
<feFlood flood-opacity="0" result="BackgroundImageFix"/>
<feColorMatrix in="SourceAlpha" type="matrix" values="0 0 0 0 0 0 0 0 0 0 0 0 0 0 0 0 0 0 127 0" result="hardAlpha"/>
<feOffset dy="10.679"/>
<feGaussianBlur stdDeviation="16.6855"/>
<feComposite in2="hardAlpha" operator="out"/>
<feColorMatrix type="matrix" values="0 0 0 0 0 0 0 0 0 0 0 0 0 0 0 0 0 0 0.55 0"/>
<feBlend mode="normal" in2="BackgroundImageFix" result="effect1_dropShadow_396_1881"/>
<feBlend mode="normal" in="SourceGraphic" in2="effect1_dropShadow_396_1881" result="shape"/>
</filter>
<filter id="filter1_d_396_1881" x="-300.629" y="-217.5" width="1127" height="985" filterUnits="userSpaceOnUse" color-interpolation-filters="sRGB">
<feFlood flood-opacity="0" result="BackgroundImageFix"/>
<feColorMatrix in="SourceAlpha" type="matrix" values="0 0 0 0 0 0 0 0 0 0 0 0 0 0 0 0 0 0 127 0" result="hardAlpha"/>
<feOffset dy="-20"/>
<feGaussianBlur stdDeviation="100"/>
<feComposite in2="hardAlpha" operator="out"/>
<feColorMatrix type="matrix" values="0 0 0 0 0.266667 0 0 0 0 0.0784314 0 0 0 0 0.733333 0 0 0 0.75 0"/>
<feBlend mode="normal" in2="BackgroundImageFix" result="effect1_dropShadow_396_1881"/>
<feBlend mode="normal" in="SourceGraphic" in2="effect1_dropShadow_396_1881" result="shape"/>
</filter>
<clipPath id="clip0_396_1881">
<rect x="33.371" y="26.5" width="452" height="361" rx="13" fill="white"/>
</clipPath>
</defs>
</svg>
