<svg width="245" height="38" viewBox="0 0 245 38" fill="none" xmlns="http://www.w3.org/2000/svg">
<path d="M56.5045 6.57176C52.9171 6.57176 50.0089 9.51406 50.0089 13.1435C50.0089 14.8364 50.6449 16.3732 51.6822 17.5351L41.0498 29.0856C40.8831 29.0232 40.7164 28.9732 40.5435 28.9295V13.0498C43.6307 12.5438 45.9955 9.8389 45.9955 6.57176C45.9955 2.9423 43.0874 0 39.5 0C35.9126 0 33.0045 2.9423 33.0045 6.57176C33.0045 9.8389 35.3631 12.5438 38.4565 13.0498V28.9295C38.2836 28.9732 38.1169 29.0232 37.9502 29.0856L27.3178 17.5351C28.3551 16.3732 28.9911 14.8364 28.9911 13.1435C28.9911 9.51406 26.0829 6.57176 22.4955 6.57176C18.9082 6.57176 16 9.51406 16 13.1435C16 16.773 18.9082 19.7153 22.4955 19.7153C23.6563 19.7153 24.743 19.4029 25.6816 18.8657L36.1781 30.2726C35.4187 31.0909 34.9556 32.1904 34.9556 33.4023C34.9556 35.9448 36.9932 38 39.5 38C42.0068 38 44.0444 35.9385 44.0444 33.4023C44.0444 32.1904 43.5751 31.0909 42.8219 30.2726L53.3184 18.8657C54.2631 19.4029 55.3437 19.7153 56.5045 19.7153C60.0918 19.7153 63 16.773 63 13.1435C63 9.51406 60.0918 6.57176 56.5045 6.57176Z" fill="url(#paint0_linear_604_849)"/>
<path d="M82.0586 26V11.9082H84.5781V17.7676H91.4336V11.9082H93.9434V26H91.4336V19.8867H84.5781V26H82.0586ZM99.832 26.1758C99.1549 26.1758 98.5527 26.0456 98.0254 25.7852C97.498 25.5247 97.0846 25.1569 96.7852 24.6816C96.4857 24.1999 96.3359 23.64 96.3359 23.002V22.9824C96.3359 22.3509 96.4922 21.8105 96.8047 21.3613C97.1172 20.9056 97.5729 20.5475 98.1719 20.2871C98.7708 20.0267 99.4967 19.8704 100.35 19.8184L104.305 19.584V21.1855L100.701 21.4199C100.037 21.4525 99.5423 21.5957 99.2168 21.8496C98.8978 22.097 98.7383 22.4355 98.7383 22.8652V22.8848C98.7383 23.334 98.9076 23.6855 99.2461 23.9395C99.5911 24.1934 100.031 24.3203 100.564 24.3203C101.053 24.3203 101.486 24.2227 101.863 24.0273C102.241 23.832 102.54 23.5684 102.762 23.2363C102.983 22.8978 103.094 22.5202 103.094 22.1035V18.793C103.094 18.2591 102.924 17.849 102.586 17.5625C102.247 17.2695 101.756 17.123 101.111 17.123C100.545 17.123 100.086 17.2272 99.7344 17.4355C99.3893 17.6374 99.1582 17.9173 99.041 18.2754L99.0312 18.3242H96.7461L96.7559 18.2363C96.834 17.6309 97.0618 17.1003 97.4395 16.6445C97.8236 16.1888 98.3346 15.834 98.9727 15.5801C99.6172 15.3197 100.366 15.1895 101.219 15.1895C102.124 15.1895 102.895 15.3327 103.533 15.6191C104.171 15.9056 104.66 16.3158 104.998 16.8496C105.337 17.377 105.506 18.0117 105.506 18.7539V26H103.094V24.5059H102.947C102.752 24.8509 102.498 25.1504 102.186 25.4043C101.88 25.6517 101.528 25.8438 101.131 25.9805C100.734 26.1107 100.301 26.1758 99.832 26.1758ZM108.191 26V15.4043H110.623V17.0352H110.76C111.02 16.4622 111.408 16.013 111.922 15.6875C112.443 15.3555 113.09 15.1895 113.865 15.1895C115.044 15.1895 115.945 15.5345 116.57 16.2246C117.202 16.9147 117.518 17.888 117.518 19.1445V26H115.086V19.6914C115.086 18.8841 114.91 18.2754 114.559 17.8652C114.214 17.4486 113.68 17.2402 112.957 17.2402C112.475 17.2402 112.059 17.3477 111.707 17.5625C111.362 17.7773 111.095 18.0768 110.906 18.4609C110.717 18.8451 110.623 19.3008 110.623 19.8281V26H108.191ZM124.021 26.1855C123.13 26.1855 122.358 25.9642 121.707 25.5215C121.056 25.0723 120.551 24.4375 120.193 23.6172C119.835 22.7969 119.656 21.8268 119.656 20.707V20.6973C119.656 19.5645 119.832 18.5911 120.184 17.7773C120.542 16.957 121.046 16.3255 121.697 15.8828C122.348 15.4401 123.12 15.2188 124.012 15.2188C124.5 15.2188 124.956 15.2969 125.379 15.4531C125.802 15.6094 126.173 15.8275 126.492 16.1074C126.811 16.3874 127.065 16.7259 127.254 17.123H127.391V11.3613H129.822V26H127.391V24.3105H127.254C127.059 24.7012 126.801 25.0365 126.482 25.3164C126.17 25.5964 125.805 25.8112 125.389 25.9609C124.972 26.1107 124.516 26.1855 124.021 26.1855ZM124.764 24.1348C125.311 24.1348 125.783 23.998 126.18 23.7246C126.577 23.4447 126.883 23.0475 127.098 22.5332C127.312 22.0189 127.42 21.4134 127.42 20.7168V20.6973C127.42 19.9876 127.309 19.3789 127.088 18.8711C126.873 18.3568 126.567 17.9629 126.17 17.6895C125.773 17.4095 125.304 17.2695 124.764 17.2695C124.223 17.2695 123.755 17.4095 123.357 17.6895C122.967 17.9629 122.664 18.3535 122.449 18.8613C122.241 19.3691 122.137 19.9811 122.137 20.6973V20.707C122.137 21.4167 122.241 22.0286 122.449 22.543C122.664 23.0573 122.967 23.4512 123.357 23.7246C123.755 23.998 124.223 24.1348 124.764 24.1348ZM133.846 29.6816C133.676 29.6816 133.504 29.6751 133.328 29.6621C133.152 29.6491 132.99 29.6361 132.84 29.623V27.7578C132.938 27.7708 133.051 27.7806 133.182 27.7871C133.312 27.8001 133.445 27.8066 133.582 27.8066C134.077 27.8066 134.471 27.7025 134.764 27.4941C135.063 27.2923 135.281 26.9538 135.418 26.4785L135.555 26.0098L131.756 15.4043H134.402L137.166 24.6914L136.57 23.7344H137.332L136.756 24.6914L139.51 15.4043H142.068L138.27 26.2637C137.97 27.1165 137.625 27.7936 137.234 28.2949C136.844 28.7962 136.375 29.151 135.828 29.3594C135.281 29.5742 134.62 29.6816 133.846 29.6816ZM155.125 26.3223C153.79 26.3223 152.635 26.026 151.658 25.4336C150.688 24.8346 149.939 23.985 149.412 22.8848C148.885 21.7845 148.621 20.4759 148.621 18.959V18.9492C148.621 17.4258 148.885 16.1172 149.412 15.0234C149.939 13.9232 150.688 13.0768 151.658 12.4844C152.628 11.8854 153.781 11.5859 155.115 11.5859C156.189 11.5859 157.156 11.7943 158.016 12.2109C158.875 12.6276 159.575 13.207 160.115 13.9492C160.656 14.6849 160.981 15.5312 161.092 16.4883V16.5762H158.621L158.602 16.498C158.484 15.9447 158.263 15.4629 157.938 15.0527C157.612 14.6426 157.208 14.3268 156.727 14.1055C156.251 13.8776 155.714 13.7637 155.115 13.7637C154.314 13.7637 153.618 13.9753 153.025 14.3984C152.439 14.8151 151.987 15.4108 151.668 16.1855C151.349 16.9603 151.189 17.8783 151.189 18.9395V18.959C151.189 20.0202 151.349 20.9414 151.668 21.7227C151.987 22.4974 152.439 23.0964 153.025 23.5195C153.618 23.9362 154.318 24.1445 155.125 24.1445C155.724 24.1445 156.261 24.0404 156.736 23.832C157.218 23.6237 157.618 23.3275 157.938 22.9434C158.263 22.5527 158.488 22.0938 158.611 21.5664L158.631 21.498H161.102L161.092 21.5859C160.968 22.5299 160.639 23.3568 160.105 24.0664C159.572 24.776 158.878 25.3294 158.025 25.7266C157.173 26.1237 156.206 26.3223 155.125 26.3223ZM168.045 26.2148C166.997 26.2148 166.089 25.9935 165.32 25.5508C164.559 25.1081 163.969 24.4766 163.553 23.6562C163.143 22.8294 162.938 21.8464 162.938 20.707V20.6875C162.938 19.5547 163.146 18.5781 163.562 17.7578C163.979 16.931 164.568 16.2962 165.33 15.8535C166.098 15.4108 167.003 15.1895 168.045 15.1895C169.093 15.1895 169.998 15.4108 170.76 15.8535C171.521 16.2962 172.111 16.9277 172.527 17.748C172.944 18.5684 173.152 19.5482 173.152 20.6875V20.707C173.152 21.8464 172.944 22.8294 172.527 23.6562C172.117 24.4766 171.531 25.1081 170.77 25.5508C170.008 25.9935 169.1 26.2148 168.045 26.2148ZM168.045 24.2422C168.598 24.2422 169.07 24.1022 169.461 23.8223C169.852 23.5423 170.151 23.1387 170.359 22.6113C170.568 22.084 170.672 21.4492 170.672 20.707V20.6875C170.672 19.9453 170.568 19.3138 170.359 18.793C170.151 18.2656 169.852 17.862 169.461 17.582C169.07 17.3021 168.598 17.1621 168.045 17.1621C167.498 17.1621 167.029 17.3021 166.639 17.582C166.248 17.862 165.949 18.2656 165.74 18.793C165.532 19.3138 165.428 19.9453 165.428 20.6875V20.707C165.428 21.4557 165.532 22.0938 165.74 22.6211C165.949 23.1484 166.248 23.5521 166.639 23.832C167.029 24.1055 167.498 24.2422 168.045 24.2422ZM175.379 26V15.4043H177.811V17.0352H177.947C178.208 16.4622 178.595 16.013 179.109 15.6875C179.63 15.3555 180.278 15.1895 181.053 15.1895C182.231 15.1895 183.133 15.5345 183.758 16.2246C184.389 16.9147 184.705 17.888 184.705 19.1445V26H182.273V19.6914C182.273 18.8841 182.098 18.2754 181.746 17.8652C181.401 17.4486 180.867 17.2402 180.145 17.2402C179.663 17.2402 179.246 17.3477 178.895 17.5625C178.549 17.7773 178.283 18.0768 178.094 18.4609C177.905 18.8451 177.811 19.3008 177.811 19.8281V26H175.379ZM187.352 26V15.4043H189.783V17.0352H189.92C190.18 16.4622 190.568 16.013 191.082 15.6875C191.603 15.3555 192.251 15.1895 193.025 15.1895C194.204 15.1895 195.105 15.5345 195.73 16.2246C196.362 16.9147 196.678 17.888 196.678 19.1445V26H194.246V19.6914C194.246 18.8841 194.07 18.2754 193.719 17.8652C193.374 17.4486 192.84 17.2402 192.117 17.2402C191.635 17.2402 191.219 17.3477 190.867 17.5625C190.522 17.7773 190.255 18.0768 190.066 18.4609C189.878 18.8451 189.783 19.3008 189.783 19.8281V26H187.352ZM203.885 26.2148C202.837 26.2148 201.932 25.9935 201.17 25.5508C200.415 25.1016 199.832 24.4668 199.422 23.6465C199.018 22.8262 198.816 21.8529 198.816 20.7266V20.7168C198.816 19.6035 199.018 18.6335 199.422 17.8066C199.832 16.9798 200.408 16.3385 201.15 15.8828C201.893 15.4206 202.768 15.1895 203.777 15.1895C204.78 15.1895 205.646 15.4108 206.375 15.8535C207.111 16.2962 207.674 16.918 208.064 17.7188C208.462 18.513 208.66 19.444 208.66 20.5117V21.3125H200.037V19.6816H207.479L206.316 21.2051V20.2383C206.316 19.5352 206.209 18.9525 205.994 18.4902C205.779 18.028 205.483 17.6797 205.105 17.4453C204.734 17.2109 204.301 17.0938 203.807 17.0938C203.312 17.0938 202.872 17.2142 202.488 17.4551C202.104 17.696 201.798 18.0508 201.57 18.5195C201.349 18.9883 201.238 19.5612 201.238 20.2383V21.2051C201.238 21.8561 201.346 22.4128 201.561 22.875C201.782 23.3372 202.094 23.6921 202.498 23.9395C202.908 24.1868 203.39 24.3105 203.943 24.3105C204.373 24.3105 204.744 24.2487 205.057 24.125C205.369 23.9948 205.623 23.8385 205.818 23.6562C206.014 23.4674 206.15 23.2852 206.229 23.1094L206.258 23.041H208.553L208.533 23.1289C208.449 23.487 208.292 23.8483 208.064 24.2129C207.837 24.571 207.534 24.903 207.156 25.209C206.779 25.5085 206.316 25.7526 205.77 25.9414C205.229 26.1237 204.601 26.2148 203.885 26.2148ZM215.467 26.2148C214.406 26.2148 213.494 25.9935 212.732 25.5508C211.977 25.1081 211.395 24.4733 210.984 23.6465C210.581 22.8197 210.379 21.8333 210.379 20.6875V20.668C210.379 19.5286 210.581 18.5521 210.984 17.7383C211.395 16.918 211.977 16.2897 212.732 15.8535C213.494 15.4108 214.402 15.1895 215.457 15.1895C216.368 15.1895 217.153 15.3522 217.811 15.6777C218.475 16.0033 218.999 16.446 219.383 17.0059C219.767 17.5658 220.001 18.2103 220.086 18.9395V18.9883H217.791L217.781 18.9492C217.677 18.4349 217.43 18.0085 217.039 17.6699C216.648 17.3314 216.124 17.1621 215.467 17.1621C214.92 17.1621 214.451 17.3021 214.061 17.582C213.676 17.862 213.38 18.2624 213.172 18.7832C212.964 19.304 212.859 19.9323 212.859 20.668V20.6875C212.859 21.4362 212.964 22.0775 213.172 22.6113C213.38 23.1387 213.68 23.5423 214.07 23.8223C214.461 24.1022 214.926 24.2422 215.467 24.2422C216.098 24.2422 216.606 24.0957 216.99 23.8027C217.374 23.5033 217.638 23.0768 217.781 22.5234L217.801 22.4648H220.086L220.076 22.5332C219.972 23.2559 219.725 23.8939 219.334 24.4473C218.95 25.0007 218.432 25.4336 217.781 25.7461C217.13 26.0586 216.359 26.2148 215.467 26.2148ZM226.424 26.0879C225.239 26.0879 224.376 25.8633 223.836 25.4141C223.302 24.9583 223.035 24.2096 223.035 23.168V17.2793H221.424V15.4043H223.035V12.7773H225.506V15.4043H227.674V17.2793H225.506V22.6895C225.506 23.2103 225.617 23.5879 225.838 23.8223C226.066 24.0501 226.424 24.1641 226.912 24.1641C227.068 24.1641 227.202 24.1608 227.312 24.1543C227.43 24.1413 227.55 24.1315 227.674 24.125V25.9805C227.511 26.0065 227.322 26.0293 227.107 26.0488C226.893 26.0749 226.665 26.0879 226.424 26.0879Z" fill="black"/>
<defs>
<linearGradient id="paint0_linear_604_849" x1="37.0734" y1="-8.23968" x2="43.0063" y2="42.8694" gradientUnits="userSpaceOnUse">
<stop stop-color="#F9C104"/>
<stop offset="0.27" stop-color="#F8C107"/>
<stop offset="0.67" stop-color="#FBC304"/>
<stop offset="1" stop-color="#FFFAF0"/>
</linearGradient>
</defs>
</svg>
